<mxfile host="drawio-plugin" modified="2023-02-22T15:16:58.377Z" agent="5.0 (Macintosh; Intel Mac OS X 10_15_7) AppleWebKit/537.36 (KHTML, like Gecko) Chrome/104.0.5112.102 Safari/537.36" etag="MuyJHyYoxH-ury4UiY9Y" version="20.5.3" type="embed"><diagram id="cSNN79PYNdNSPv4F7xAm" name="SystemArchitecture"><mxGraphModel dx="3020" dy="1355" grid="1" gridSize="10" guides="1" tooltips="1" connect="1" arrows="1" fold="1" page="1" pageScale="1" pageWidth="827" pageHeight="1169" math="0" shadow="0"><root><mxCell id="0"/><mxCell id="1" parent="0"/><mxCell id="87" value="" style="rounded=1;whiteSpace=wrap;html=1;absoluteArcSize=1;arcSize=14;strokeWidth=2;strokeColor=#d79b00;fontSize=35;fillColor=#ffe6cc;" vertex="1" parent="1"><mxGeometry x="-470" y="50" width="1520" height="960" as="geometry"/></mxCell><mxCell id="49" style="edgeStyle=orthogonalEdgeStyle;rounded=0;orthogonalLoop=1;jettySize=auto;html=1;entryX=0;entryY=0.5;entryDx=0;entryDy=0;fontSize=35;strokeWidth=5;startArrow=classic;startFill=1;" edge="1" parent="1" source="eByOiYNADUTrQ8LfuvtY-17" target="47"><mxGeometry relative="1" as="geometry"/></mxCell><mxCell id="51" style="edgeStyle=orthogonalEdgeStyle;rounded=0;orthogonalLoop=1;jettySize=auto;html=1;entryX=0;entryY=0.5;entryDx=0;entryDy=0;strokeWidth=5;fontSize=35;dashed=1;endArrow=openThin;endFill=0;startArrow=block;startFill=1;" edge="1" parent="1" source="eByOiYNADUTrQ8LfuvtY-17" target="50"><mxGeometry relative="1" as="geometry"><Array as="points"><mxPoint x="-695" y="710"/></Array></mxGeometry></mxCell><mxCell id="eByOiYNADUTrQ8LfuvtY-17" value="" style="shape=umlActor;verticalLabelPosition=bottom;verticalAlign=top;html=1;outlineConnect=0;fontSize=29;" parent="1" vertex="1"><mxGeometry x="-770" y="265" width="150" height="260" as="geometry"/></mxCell><mxCell id="3" value="" style="rounded=0;whiteSpace=wrap;html=1;" vertex="1" parent="1"><mxGeometry x="150" y="410" width="210" height="90" as="geometry"/></mxCell><mxCell id="5" value="" style="rounded=1;whiteSpace=wrap;html=1;fillColor=#fff2cc;strokeColor=#d6b656;" vertex="1" parent="1"><mxGeometry x="160" y="420" width="190" height="70" as="geometry"/></mxCell><mxCell id="6" value="Document" style="text;strokeColor=none;fillColor=none;align=center;verticalAlign=middle;spacingLeft=4;spacingRight=4;overflow=hidden;points=[[0,0.5],[1,0.5]];portConstraint=eastwest;rotatable=0;fontSize=30;fontColor=#333333;" vertex="1" parent="1"><mxGeometry x="130" y="420" width="250" height="55" as="geometry"/></mxCell><mxCell id="7" value="" style="rounded=0;whiteSpace=wrap;html=1;" vertex="1" parent="1"><mxGeometry x="155" y="550" width="210" height="90" as="geometry"/></mxCell><mxCell id="8" value="" style="rounded=1;whiteSpace=wrap;html=1;fillColor=#fff2cc;strokeColor=#d6b656;" vertex="1" parent="1"><mxGeometry x="165" y="560" width="190" height="70" as="geometry"/></mxCell><mxCell id="9" value="Hiring" style="text;strokeColor=none;fillColor=none;align=center;verticalAlign=middle;spacingLeft=4;spacingRight=4;overflow=hidden;points=[[0,0.5],[1,0.5]];portConstraint=eastwest;rotatable=0;fontSize=30;fontColor=#333333;" vertex="1" parent="1"><mxGeometry x="135" y="560" width="250" height="55" as="geometry"/></mxCell><mxCell id="13" value="" style="rounded=0;whiteSpace=wrap;html=1;" vertex="1" parent="1"><mxGeometry x="150" y="280" width="210" height="90" as="geometry"/></mxCell><mxCell id="14" value="" style="rounded=1;whiteSpace=wrap;html=1;fillColor=#fff2cc;strokeColor=#d6b656;" vertex="1" parent="1"><mxGeometry x="160" y="290" width="190" height="70" as="geometry"/></mxCell><mxCell id="15" value="Appointment" style="text;strokeColor=none;fillColor=none;align=center;verticalAlign=middle;spacingLeft=4;spacingRight=4;overflow=hidden;points=[[0,0.5],[1,0.5]];portConstraint=eastwest;rotatable=0;fontSize=30;fontColor=#333333;" vertex="1" parent="1"><mxGeometry x="130" y="290" width="250" height="55" as="geometry"/></mxCell><mxCell id="24" value="" style="rounded=0;whiteSpace=wrap;html=1;" vertex="1" parent="1"><mxGeometry x="155" y="660" width="210" height="90" as="geometry"/></mxCell><mxCell id="25" value="" style="rounded=1;whiteSpace=wrap;html=1;fillColor=#fff2cc;strokeColor=#d6b656;" vertex="1" parent="1"><mxGeometry x="165" y="670" width="190" height="70" as="geometry"/></mxCell><mxCell id="26" value="Vacation" style="text;strokeColor=none;fillColor=none;align=center;verticalAlign=middle;spacingLeft=4;spacingRight=4;overflow=hidden;points=[[0,0.5],[1,0.5]];portConstraint=eastwest;rotatable=0;fontSize=30;fontColor=#333333;" vertex="1" parent="1"><mxGeometry x="135" y="670" width="250" height="55" as="geometry"/></mxCell><mxCell id="27" value="" style="rounded=0;whiteSpace=wrap;html=1;" vertex="1" parent="1"><mxGeometry x="155" y="780" width="210" height="90" as="geometry"/></mxCell><mxCell id="28" value="" style="rounded=1;whiteSpace=wrap;html=1;fillColor=#fff2cc;strokeColor=#d6b656;" vertex="1" parent="1"><mxGeometry x="165" y="790" width="190" height="70" as="geometry"/></mxCell><mxCell id="29" value="Salary" style="text;strokeColor=none;fillColor=none;align=center;verticalAlign=middle;spacingLeft=4;spacingRight=4;overflow=hidden;points=[[0,0.5],[1,0.5]];portConstraint=eastwest;rotatable=0;fontSize=30;fontColor=#333333;" vertex="1" parent="1"><mxGeometry x="135" y="790" width="250" height="55" as="geometry"/></mxCell><mxCell id="30" value="" style="rounded=0;whiteSpace=wrap;html=1;" vertex="1" parent="1"><mxGeometry x="150" y="160" width="210" height="90" as="geometry"/></mxCell><mxCell id="31" value="" style="rounded=1;whiteSpace=wrap;html=1;fillColor=#fff2cc;strokeColor=#d6b656;" vertex="1" parent="1"><mxGeometry x="160" y="170" width="190" height="70" as="geometry"/></mxCell><mxCell id="32" value="Managment" style="text;strokeColor=none;fillColor=none;align=center;verticalAlign=middle;spacingLeft=4;spacingRight=4;overflow=hidden;points=[[0,0.5],[1,0.5]];portConstraint=eastwest;rotatable=0;fontSize=30;fontColor=#333333;" vertex="1" parent="1"><mxGeometry x="130" y="170" width="250" height="55" as="geometry"/></mxCell><mxCell id="34" value="" style="rounded=0;whiteSpace=wrap;html=1;" vertex="1" parent="1"><mxGeometry x="120" y="290" width="30" height="65" as="geometry"/></mxCell><mxCell id="35" value="" style="rounded=0;whiteSpace=wrap;html=1;" vertex="1" parent="1"><mxGeometry x="120" y="420" width="30" height="65" as="geometry"/></mxCell><mxCell id="36" value="" style="rounded=0;whiteSpace=wrap;html=1;" vertex="1" parent="1"><mxGeometry x="125" y="560" width="30" height="65" as="geometry"/></mxCell><mxCell id="37" value="" style="rounded=0;whiteSpace=wrap;html=1;" vertex="1" parent="1"><mxGeometry x="125" y="670" width="30" height="65" as="geometry"/></mxCell><mxCell id="38" value="" style="rounded=0;whiteSpace=wrap;html=1;" vertex="1" parent="1"><mxGeometry x="125" y="790" width="30" height="65" as="geometry"/></mxCell><mxCell id="78" style="edgeStyle=orthogonalEdgeStyle;rounded=0;orthogonalLoop=1;jettySize=auto;html=1;entryX=0;entryY=0.5;entryDx=0;entryDy=0;entryPerimeter=0;strokeWidth=3;fontSize=35;startArrow=none;startFill=0;endArrow=none;endFill=0;" edge="1" parent="1" source="39" target="67"><mxGeometry relative="1" as="geometry"/></mxCell><mxCell id="39" value="" style="shape=or;whiteSpace=wrap;html=1;" vertex="1" parent="1"><mxGeometry x="360" y="160" width="60" height="90" as="geometry"/></mxCell><mxCell id="79" style="edgeStyle=orthogonalEdgeStyle;rounded=0;orthogonalLoop=1;jettySize=auto;html=1;entryX=0;entryY=0.5;entryDx=0;entryDy=0;entryPerimeter=0;strokeWidth=3;fontSize=35;startArrow=none;startFill=0;endArrow=none;endFill=0;" edge="1" parent="1" source="41" target="67"><mxGeometry relative="1" as="geometry"/></mxCell><mxCell id="41" value="" style="shape=or;whiteSpace=wrap;html=1;" vertex="1" parent="1"><mxGeometry x="360" y="280" width="60" height="90" as="geometry"/></mxCell><mxCell id="81" style="edgeStyle=orthogonalEdgeStyle;rounded=0;orthogonalLoop=1;jettySize=auto;html=1;entryX=0;entryY=0.5;entryDx=0;entryDy=0;entryPerimeter=0;strokeWidth=3;fontSize=35;startArrow=none;startFill=0;endArrow=none;endFill=0;" edge="1" parent="1" source="42" target="67"><mxGeometry relative="1" as="geometry"/></mxCell><mxCell id="42" value="" style="shape=or;whiteSpace=wrap;html=1;" vertex="1" parent="1"><mxGeometry x="360" y="410" width="60" height="90" as="geometry"/></mxCell><mxCell id="82" style="edgeStyle=orthogonalEdgeStyle;rounded=0;orthogonalLoop=1;jettySize=auto;html=1;entryX=0;entryY=0.5;entryDx=0;entryDy=0;entryPerimeter=0;strokeWidth=3;fontSize=35;startArrow=none;startFill=0;endArrow=none;endFill=0;" edge="1" parent="1" source="43" target="67"><mxGeometry relative="1" as="geometry"><Array as="points"><mxPoint x="530" y="595"/><mxPoint x="530" y="397"/></Array></mxGeometry></mxCell><mxCell id="43" value="" style="shape=or;whiteSpace=wrap;html=1;" vertex="1" parent="1"><mxGeometry x="365" y="550" width="60" height="90" as="geometry"/></mxCell><mxCell id="83" style="edgeStyle=orthogonalEdgeStyle;rounded=0;orthogonalLoop=1;jettySize=auto;html=1;entryX=0;entryY=0.5;entryDx=0;entryDy=0;entryPerimeter=0;strokeWidth=3;fontSize=35;startArrow=none;startFill=0;endArrow=none;endFill=0;" edge="1" parent="1" source="44" target="67"><mxGeometry relative="1" as="geometry"><Array as="points"><mxPoint x="532" y="705"/><mxPoint x="532" y="397"/></Array></mxGeometry></mxCell><mxCell id="44" value="" style="shape=or;whiteSpace=wrap;html=1;" vertex="1" parent="1"><mxGeometry x="365" y="660" width="60" height="90" as="geometry"/></mxCell><mxCell id="84" style="edgeStyle=orthogonalEdgeStyle;rounded=0;orthogonalLoop=1;jettySize=auto;html=1;entryX=0;entryY=0.5;entryDx=0;entryDy=0;entryPerimeter=0;strokeWidth=3;fontSize=35;startArrow=none;startFill=0;endArrow=none;endFill=0;" edge="1" parent="1" source="45" target="67"><mxGeometry relative="1" as="geometry"><Array as="points"><mxPoint x="530" y="825"/><mxPoint x="530" y="397"/></Array></mxGeometry></mxCell><mxCell id="45" value="" style="shape=or;whiteSpace=wrap;html=1;" vertex="1" parent="1"><mxGeometry x="365" y="780" width="60" height="90" as="geometry"/></mxCell><mxCell id="71" style="edgeStyle=orthogonalEdgeStyle;rounded=0;orthogonalLoop=1;jettySize=auto;html=1;entryX=0;entryY=0.5;entryDx=0;entryDy=0;strokeWidth=3;fontSize=35;startArrow=none;startFill=0;endArrow=none;endFill=0;" edge="1" parent="1" source="47" target="32"><mxGeometry relative="1" as="geometry"><Array as="points"><mxPoint y="395"/><mxPoint y="198"/></Array></mxGeometry></mxCell><mxCell id="72" style="edgeStyle=orthogonalEdgeStyle;rounded=0;orthogonalLoop=1;jettySize=auto;html=1;entryX=0;entryY=0.5;entryDx=0;entryDy=0;strokeWidth=3;fontSize=35;startArrow=none;startFill=0;endArrow=none;endFill=0;" edge="1" parent="1" source="47" target="34"><mxGeometry relative="1" as="geometry"/></mxCell><mxCell id="74" style="edgeStyle=orthogonalEdgeStyle;rounded=0;orthogonalLoop=1;jettySize=auto;html=1;entryX=0;entryY=0.5;entryDx=0;entryDy=0;strokeWidth=3;fontSize=35;startArrow=none;startFill=0;endArrow=none;endFill=0;" edge="1" parent="1" source="47" target="35"><mxGeometry relative="1" as="geometry"/></mxCell><mxCell id="75" style="edgeStyle=orthogonalEdgeStyle;rounded=0;orthogonalLoop=1;jettySize=auto;html=1;entryX=0;entryY=0.5;entryDx=0;entryDy=0;strokeWidth=3;fontSize=35;startArrow=none;startFill=0;endArrow=none;endFill=0;" edge="1" parent="1" source="47" target="36"><mxGeometry relative="1" as="geometry"><Array as="points"><mxPoint y="395"/><mxPoint y="593"/></Array></mxGeometry></mxCell><mxCell id="76" style="edgeStyle=orthogonalEdgeStyle;rounded=0;orthogonalLoop=1;jettySize=auto;html=1;entryX=0;entryY=0.5;entryDx=0;entryDy=0;strokeWidth=3;fontSize=35;startArrow=none;startFill=0;endArrow=none;endFill=0;" edge="1" parent="1" source="47" target="37"><mxGeometry relative="1" as="geometry"><Array as="points"><mxPoint y="395"/><mxPoint y="703"/></Array></mxGeometry></mxCell><mxCell id="77" style="edgeStyle=orthogonalEdgeStyle;rounded=0;orthogonalLoop=1;jettySize=auto;html=1;entryX=0;entryY=0.5;entryDx=0;entryDy=0;strokeWidth=3;fontSize=35;startArrow=none;startFill=0;endArrow=none;endFill=0;" edge="1" parent="1" source="47" target="38"><mxGeometry relative="1" as="geometry"><Array as="points"><mxPoint y="395"/><mxPoint y="823"/></Array></mxGeometry></mxCell><mxCell id="47" value="&lt;font style=&quot;font-size: 35px;&quot;&gt;API GATEWAY&lt;/font&gt;" style="rounded=1;whiteSpace=wrap;html=1;fillColor=#dae8fc;strokeColor=#6c8ebf;" vertex="1" parent="1"><mxGeometry x="-430" y="315" width="310" height="160" as="geometry"/></mxCell><mxCell id="50" value="&lt;span style=&quot;font-size: 35px;&quot;&gt;SSO Service&lt;/span&gt;" style="rounded=1;whiteSpace=wrap;html=1;fillColor=#fff2cc;strokeColor=#d6b656;" vertex="1" parent="1"><mxGeometry x="-430" y="630" width="310" height="160" as="geometry"/></mxCell><mxCell id="52" value="Client" style="text;strokeColor=none;fillColor=none;align=left;verticalAlign=middle;spacingLeft=4;spacingRight=4;overflow=hidden;points=[[0,0.5],[1,0.5]];portConstraint=eastwest;rotatable=0;whiteSpace=wrap;html=1;fontSize=35;" vertex="1" parent="1"><mxGeometry x="-750" y="210" width="130" height="65" as="geometry"/></mxCell><mxCell id="54" value="" style="html=1;verticalLabelPosition=bottom;align=center;labelBackgroundColor=#ffffff;verticalAlign=top;strokeWidth=2;strokeColor=#000305;shadow=0;dashed=0;shape=mxgraph.ios7.icons.data;fontSize=35;" vertex="1" parent="1"><mxGeometry x="-170" y="674.9" width="110" height="139.1" as="geometry"/></mxCell><mxCell id="55" value="" style="html=1;verticalLabelPosition=bottom;align=center;labelBackgroundColor=#ffffff;verticalAlign=top;strokeWidth=2;strokeColor=#000305;shadow=0;dashed=0;shape=mxgraph.ios7.icons.data;fontSize=35;" vertex="1" parent="1"><mxGeometry x="-170" y="420" width="110" height="139.1" as="geometry"/></mxCell><mxCell id="86" style="edgeStyle=orthogonalEdgeStyle;rounded=0;orthogonalLoop=1;jettySize=auto;html=1;strokeWidth=3;fontSize=35;startArrow=none;startFill=0;endArrow=none;endFill=0;" edge="1" parent="1" source="57"><mxGeometry relative="1" as="geometry"><mxPoint x="530" y="705" as="targetPoint"/></mxGeometry></mxCell><mxCell id="57" value="" style="html=1;verticalLabelPosition=bottom;align=center;labelBackgroundColor=#ffffff;verticalAlign=top;strokeWidth=2;strokeColor=#000305;shadow=0;dashed=0;shape=mxgraph.ios7.icons.data;fontSize=35;" vertex="1" parent="1"><mxGeometry x="680" y="565" width="220" height="280" as="geometry"/></mxCell><mxCell id="59" value="" style="rounded=0;whiteSpace=wrap;html=1;strokeColor=#000305;fontSize=35;" vertex="1" parent="1"><mxGeometry x="756" y="190" width="80" height="192.5" as="geometry"/></mxCell><mxCell id="62" value="" style="rounded=0;whiteSpace=wrap;html=1;strokeColor=#000305;fontSize=35;" vertex="1" parent="1"><mxGeometry x="656" y="190" width="80" height="192.5" as="geometry"/></mxCell><mxCell id="65" value="" style="rounded=0;whiteSpace=wrap;html=1;strokeColor=#000305;fontSize=35;" vertex="1" parent="1"><mxGeometry x="856" y="190" width="80" height="192.5" as="geometry"/></mxCell><mxCell id="67" value="&lt;br&gt;Message Broker" style="shape=crossbar;whiteSpace=wrap;html=1;rounded=1;strokeColor=#000305;fontSize=35;strokeWidth=9;" vertex="1" parent="1"><mxGeometry x="639" y="345" width="314" height="105" as="geometry"/></mxCell><mxCell id="33" value="" style="rounded=0;whiteSpace=wrap;html=1;" vertex="1" parent="1"><mxGeometry x="120" y="170" width="30" height="65" as="geometry"/></mxCell><mxCell id="91" value="&lt;font style=&quot;font-size: 30px;&quot;&gt;Postgres&lt;/font&gt;" style="text;strokeColor=none;fillColor=none;align=left;verticalAlign=middle;spacingLeft=4;spacingRight=4;overflow=hidden;points=[[0,0.5],[1,0.5]];portConstraint=eastwest;rotatable=0;whiteSpace=wrap;html=1;fontSize=35;" vertex="1" parent="1"><mxGeometry x="-180" y="540" width="130" height="65" as="geometry"/></mxCell><mxCell id="92" value="&lt;font style=&quot;font-size: 30px;&quot;&gt;Postgres&lt;/font&gt;" style="text;strokeColor=none;fillColor=none;align=left;verticalAlign=middle;spacingLeft=4;spacingRight=4;overflow=hidden;points=[[0,0.5],[1,0.5]];portConstraint=eastwest;rotatable=0;whiteSpace=wrap;html=1;fontSize=35;" vertex="1" parent="1"><mxGeometry x="-180" y="800" width="130" height="65" as="geometry"/></mxCell><mxCell id="93" value="&lt;font style=&quot;font-size: 35px;&quot;&gt;MariaDB&lt;/font&gt;" style="text;strokeColor=none;fillColor=none;align=left;verticalAlign=middle;spacingLeft=4;spacingRight=4;overflow=hidden;points=[[0,0.5],[1,0.5]];portConstraint=eastwest;rotatable=0;whiteSpace=wrap;html=1;fontSize=35;" vertex="1" parent="1"><mxGeometry x="705" y="830" width="170" height="90" as="geometry"/></mxCell><mxCell id="96" value="" style="shape=image;verticalLabelPosition=bottom;labelBackgroundColor=default;verticalAlign=top;aspect=fixed;imageAspect=0;image=https://cdn-icons-png.flaticon.com/512/919/919853.png;" vertex="1" parent="1"><mxGeometry x="-459" y="63" width="218" height="218" as="geometry"/></mxCell></root></mxGraphModel></diagram></mxfile>